<svg fill="none" height="19" viewBox="0 0 18 19" width="18" xmlns="http://www.w3.org/2000/svg"><path clip-rule="evenodd" d="m16.9073 1.0238c.1845-.186521.4852-.188187.6717-.00372.1866.18447.1882.48522.0037.67174l-2.251 2.27612.0824.08781c1.3676 1.45707 2.2051 3.41714 2.2051 5.57307 0 4.49848-3.6467 8.14518-8.14514 8.14518-2.12348 0-4.05692-.8125-5.50691-2.1437l-.08872-.0814-2.42263 2.4496c-.18447.1865-.485219.1882-.671743.0037s-.188191-.4852-.003722-.6717l2.446485-2.4738-.0709-.087c-1.14224-1.4021-1.827-3.1913-1.827-5.14088 0-4.49843 3.64671-8.14513 8.14514-8.14513 1.91714 0 3.67924.66216 5.07054 1.77036l.0878.06994zm-7.43324 1.40989c-3.97376 0-7.19514 3.22137-7.19514 7.19513 0 1.67438.57206 3.21538 1.53131 4.43798l.08752.1115 10.06375-10.1759-.1125-.08628c-1.2123-.92978-2.7292-1.48243-4.37494-1.48243zm5.27844 2.30546-.0888-.09576-10.11726 10.23001.09672.0877c1.27687 1.1575 2.97166 1.8629 4.8309 1.8629 3.97374 0 7.19514-3.2214 7.19514-7.19518 0-1.88792-.7273-3.60626-1.9167-4.88967z" fill-rule="evenodd"/></svg>