<svg width="34" height="37" viewBox="0 0 34 37" fill="none" xmlns="http://www.w3.org/2000/svg">
<path fill-rule="evenodd" clip-rule="evenodd" d="M24.3992 9.5824C24.5837 9.39587 24.8844 9.39421 25.071 9.57867C25.2575 9.76314 25.2592 10.0639 25.0747 10.2504L22.8237 12.5265L22.9061 12.6143C24.2737 14.0714 25.1111 16.0315 25.1111 18.1874C25.1111 22.6859 21.4644 26.3326 16.966 26.3326C14.8425 26.3326 12.9091 25.5201 11.4591 24.1889L11.3704 24.1075L8.94774 26.5571C8.76327 26.7436 8.46252 26.7453 8.276 26.5608C8.08948 26.3763 8.08781 26.0756 8.27228 25.8891L10.7188 23.4153L10.6479 23.3283C9.50563 21.9262 8.82087 20.1369 8.82087 18.1874C8.82087 13.689 12.4676 10.0423 16.966 10.0423C18.8831 10.0423 20.6452 10.7044 22.0366 11.8126L22.1244 11.8826L24.3992 9.5824ZM16.966 10.9923C12.9922 10.9923 9.77087 14.2137 9.77087 18.1874C9.77087 19.8618 10.3429 21.4028 11.3022 22.6254L11.3897 22.7369L21.4535 12.561L21.341 12.4747C20.1287 11.5449 18.6117 10.9923 16.966 10.9923ZM22.2444 13.2977L22.1557 13.202L12.0384 23.432L12.1351 23.5197C13.412 24.6772 15.1068 25.3826 16.966 25.3826C20.9398 25.3826 24.1611 22.1612 24.1611 18.1874C24.1611 16.2995 23.4339 14.5812 22.2444 13.2977Z"/>
</svg>
