<svg fill="none" height="30" viewBox="0 0 22 30" width="22" xmlns="http://www.w3.org/2000/svg"><path clip-rule="evenodd" d="m11.6921.659363v2.052977c0 .28461-.2479.5285-.5371.5285s-.537-.24389-.537-.5285v-2.052977c0-.284607.2478-.528504.537-.528504s.5371.243897.5371.528504zm0 17.704637v2.0531c0 .2845-.2479.5285-.5371.5285s-.537-.244-.537-.5285v-2.0531c0-.2845.2478-.5285.537-.5285s.5371.2236.5371.5285zm-5.7839-1.9311c.10327-.0813.16526-.2236.16526-.3659s-.06199-.2643-.1446-.3659c-.20657-.2032-.55771-.2032-.76428 0l-1.48724 1.4636c-.10327.0813-.16526.2235-.16526.3658s.06199.2643.16526.3659c.08261.1016.2272.1626.37179.1626.12397 0 .26856-.061.37183-.1626zm11.2372-11.038c-.1033.10162-.2272.1626-.3718.1626s-.2892-.06098-.3718-.1626c-.027-.02661-.0513-.05457-.0723-.08399-.0117-.01642-.0224-.03332-.0321-.0506-.014-.0249-.0257-.05072-.035-.07745-.0169-.04834-.0258-.09967-.0258-.15387 0-.14227.0619-.28454.1652-.36584l1.4872-1.46357c.1033-.10162.2273-.16259.3719-.16259s.2891.06097.3717.16259c.2066.18299.2066.52851 0 .73176zm-13.94298 5.6721c.28919 0 .53708-.2439.53708-.5285s-.22723-.5285-.53708-.5285h-2.08627c-.289185 0-.537048.2439-.537048.5285s.247863.5285.537048.5285zm18.52868-.5285c0 .2846-.2478.5285-.537.5285h-2.0863c-.2891 0-.537-.2439-.537-.5285s.2479-.5285.537-.5285h2.0863c.2892 0 .537.2439.537.5285zm-16.19472-5.00078c.14459 0 .26855-.06097.37182-.1626.22721-.20331.22721-.5285 0-.73181l-1.48724-1.4635c-.08261-.10162-.2272-.1626-.37183-.1626-.14459 0-.26852.06098-.37179.1626-.10327.0813-.16526.22357-.16526.36591 0 .14227.06199.26422.16526.36584l1.48724 1.46356c.08261.10163.2272.1626.3718.1626zm13.26152 11.99308c0 .1423-.0619.2846-.1653.3659-.1032.1017-.2271.1626-.3717.1626s-.2892-.0609-.3719-.1626l-1.4872-1.4635c-.1033-.1017-.1652-.2237-.1652-.3659 0-.1423.0619-.2846.1652-.3659.1033-.1017.2479-.1626.3718-.1626.1446 0 .2685.0609.3718.1626l1.4872 1.4635c.1034.0813.1653.2236.1653.3659zm-13.17852-6.9919c0-3.00838 2.49942-5.44765 5.53582-5.44765 3.0365 0 5.5152 2.45959 5.5152 5.44765 0 3.0083-2.4787 5.4476-5.5152 5.4476-3.05706 0-5.53582-2.4393-5.53582-5.4476zm1.09479 0c0 2.3985 1.983 4.3702 4.44103 4.3702 2.4581 0 4.4411-1.9513 4.4411-4.3702 0-2.39858-1.983-4.37032-4.4411-4.37032-2.4374 0-4.44103 1.95142-4.44103 4.37032zm11.69133 18.4156c.1034.0813.2066.1219.3305.1219.124 0 .2479-.0406.3099-.1016l2.8092-2.7645c.0826-.1016.124-.2033.124-.3252 0-.122-.0414-.2439-.124-.3252l-2.8092-2.7645c-.1859-.1829-.4545-.1829-.6404 0-.1858.1829-.1858.4472 0 .6301l2.0238 1.9915h-18.30088l2.00369-1.9717c.04636-.0571.07971-.1141.10007-.1747.00799-.0238.01397-.0482.01794-.0734.00394-.0249.00592-.0505.00592-.0771 0-.122-.04132-.244-.12393-.3253-.16525-.1626-.4751-.1626-.64035 0l-2.809234 2.7645c-.082611.1016-.123932.2032-.123932.3252 0 .1016.041321.2236.123932.3049l2.809234 2.7645c.06189.0487.12381.0828.19016.1023.04434.0131.09069.0196.14035.0196.10327 0 .2272 0 .30984-.1016.08261-.1016.12393-.2033.12393-.3253 0-.1219-.04132-.2439-.12393-.3252l-2.04495-2.0124h18.34324l-2.0249 1.9927c-.0826.1016-.1239.2033-.1239.3252 0 .122.0413.2439.1239.3253z" fill-rule="evenodd"/></svg>