<svg width="34" height="37" viewBox="0 0 34 37" fill="none" xmlns="http://www.w3.org/2000/svg">
<path fill-rule="evenodd" clip-rule="evenodd" d="M16.9677 5.08966V7.00467C16.9677 7.27012 16.7363 7.49765 16.4663 7.49765C16.1963 7.49765 15.9648 7.27012 15.9648 7.00467V5.08966C15.9648 4.82421 16.1963 4.59668 16.4663 4.59668C16.7363 4.59668 16.9677 4.82421 16.9677 5.08966ZM16.9677 21.6043V23.5193C16.9677 23.7848 16.7363 24.0123 16.4663 24.0123C16.1963 24.0123 15.9648 23.7848 15.9648 23.5193V21.6043C15.9648 21.3388 16.1963 21.1113 16.4663 21.1113C16.7363 21.1113 16.9677 21.3199 16.9677 21.6043ZM11.5674 19.803C11.6638 19.7271 11.7216 19.5944 11.7216 19.4617C11.7216 19.3289 11.6638 19.2152 11.5866 19.1204C11.3938 18.9308 11.0659 18.9308 10.873 19.1204L9.48443 20.4855C9.388 20.5614 9.33014 20.6941 9.33014 20.8268C9.33014 20.9596 9.388 21.0733 9.48443 21.1681C9.56158 21.2629 9.69658 21.3198 9.83158 21.3198C9.9473 21.3198 10.0823 21.2629 10.1787 21.1681L11.5674 19.803ZM22.0594 9.50689C21.963 9.60169 21.8472 9.65857 21.7122 9.65857C21.5772 9.65857 21.4422 9.60169 21.3651 9.50689C21.2687 9.41209 21.2108 9.29832 21.2108 9.1656C21.2108 9.03288 21.2687 8.90015 21.3651 8.82431L22.7537 7.45915C22.8501 7.36434 22.9658 7.30746 23.1009 7.30746C23.2359 7.30746 23.3709 7.36434 23.448 7.45915C23.6409 7.62979 23.6409 7.95212 23.448 8.14173L22.0594 9.50689ZM9.04102 14.7978C9.31103 14.7978 9.54247 14.5702 9.54247 14.3048C9.54247 14.0393 9.33032 13.8118 9.04102 13.8118H7.0931C6.82309 13.8118 6.59166 14.0393 6.59166 14.3048C6.59166 14.5702 6.82309 14.7978 7.0931 14.7978H9.04102ZM26.341 14.3048C26.341 14.5702 26.1096 14.7978 25.8396 14.7978H23.8917C23.6217 14.7978 23.3902 14.5702 23.3902 14.3048C23.3902 14.0393 23.6217 13.8118 23.8917 13.8118H25.8396C26.1096 13.8118 26.341 14.0393 26.341 14.3048ZM11.2202 9.64009C11.3552 9.64009 11.4709 9.58321 11.5674 9.48841C11.7795 9.2988 11.7795 8.99543 11.5674 8.80583L10.1787 7.44067C10.1016 7.34586 9.96659 7.28898 9.83158 7.28898C9.69658 7.28898 9.58086 7.34586 9.48443 7.44067C9.388 7.51651 9.33014 7.64923 9.33014 7.78196C9.33014 7.91468 9.388 8.02844 9.48443 8.12325L10.873 9.48841C10.9502 9.58321 11.0852 9.64009 11.2202 9.64009ZM23.6023 20.8271C23.6023 20.9598 23.5444 21.0925 23.448 21.1684C23.3516 21.2632 23.2359 21.3201 23.1009 21.3201C22.9658 21.3201 22.8308 21.2632 22.7537 21.1684L21.3651 19.8032C21.2687 19.7084 21.2108 19.5946 21.2108 19.4619C21.2108 19.3292 21.2687 19.1965 21.3651 19.1206C21.4615 19.0258 21.5965 18.9689 21.7122 18.9689C21.8472 18.9689 21.963 19.0258 22.0594 19.1206L23.448 20.4858C23.5444 20.5616 23.6023 20.6944 23.6023 20.8271ZM11.2977 14.3052C11.2977 11.499 13.6314 9.22372 16.4665 9.22372C19.3015 9.22372 21.6159 11.5179 21.6159 14.3052C21.6159 17.1113 19.3015 19.3866 16.4665 19.3866C13.6121 19.3866 11.2977 17.1113 11.2977 14.3052ZM12.3199 14.3052C12.3199 16.5425 14.1714 18.3817 16.4665 18.3817C18.7615 18.3817 20.613 16.5615 20.613 14.3052C20.613 12.0678 18.7615 10.2286 16.4665 10.2286C14.1907 10.2286 12.3199 12.0488 12.3199 14.3052ZM23.236 31.4829C23.3324 31.5587 23.4288 31.5967 23.5445 31.5967C23.6603 31.5967 23.776 31.5587 23.8338 31.5019L26.4568 28.9232C26.5339 28.8284 26.5725 28.7336 26.5725 28.6199C26.5725 28.5061 26.5339 28.3923 26.4568 28.3165L23.8338 25.7378C23.6603 25.5672 23.4095 25.5672 23.236 25.7378C23.0624 25.9085 23.0624 26.155 23.236 26.3256L25.1255 28.1832H8.03825L9.90905 26.344C9.98619 26.2492 10.0248 26.1544 10.0248 26.0407C10.0248 25.9269 9.98619 25.8131 9.90905 25.7373C9.75476 25.5856 9.46546 25.5856 9.31117 25.7373L6.68823 28.3159C6.61108 28.4107 6.57251 28.5055 6.57251 28.6193C6.57251 28.7141 6.61108 28.8279 6.68823 28.9037L9.31117 31.4823C9.4076 31.5582 9.50403 31.5961 9.61975 31.5961C9.71618 31.5961 9.8319 31.5961 9.90905 31.5013C9.98619 31.4065 10.0248 31.3117 10.0248 31.1979C10.0248 31.0842 9.98619 30.9704 9.90905 30.8946L7.9997 29.0175H25.1266L23.236 30.8762C23.1588 30.971 23.1202 31.0658 23.1202 31.1795C23.1202 31.2933 23.1588 31.4071 23.236 31.4829Z"/>
</svg>
