<svg width="34" height="37" viewBox="0 0 34 37" fill="none" xmlns="http://www.w3.org/2000/svg">
<path fill-rule="evenodd" clip-rule="evenodd" d="M17.1924 7.31836C17.4962 7.31836 17.7424 7.5646 17.7424 7.86836L17.7424 24.687C17.7424 24.9907 17.4962 25.237 17.1924 25.237C16.8887 25.237 16.6424 24.9907 16.6424 24.687L16.6424 7.86836C16.6424 7.5646 16.8887 7.31836 17.1924 7.31836Z"/>
<path fill-rule="evenodd" clip-rule="evenodd" d="M11.2198 12.0967C11.5235 12.0967 11.7698 12.3429 11.7698 12.6467L11.7698 28.2707C11.7698 28.5745 11.5235 28.8207 11.2198 28.8207C10.916 28.8207 10.6698 28.5745 10.6698 28.2707L10.6698 12.6467C10.6698 12.3429 10.916 12.0967 11.2198 12.0967Z"/>
<path fill-rule="evenodd" clip-rule="evenodd" d="M23.1651 10.9023C23.4688 10.9023 23.7151 11.1486 23.7151 11.4523L23.7151 27.0764C23.7151 27.3802 23.4688 27.6264 23.1651 27.6264C22.8613 27.6264 22.6151 27.3802 22.6151 27.0764L22.6151 11.4523C22.6151 11.1486 22.8613 10.9023 23.1651 10.9023Z"/>
</svg>
