<svg width="178" height="178" viewBox="0 0 178 178" fill="none" xmlns="http://www.w3.org/2000/svg">
<path d="M106.493 92.5756H95.6647L106.493 98.8269L113.628 112.628H96.5565L91.2058 105.597L88.6578 97.9142L86.1099 105.597L80.7592 112.628H63.6879L71.4869 98.6272L81.651 92.5756H70.8222L62.1592 89.711V73.5651L75.9181 77.2109L83.9441 83.8516L80.8866 74.2161V61.3254H97.0489V74.2161L93.3715 83.8516L101.398 77.2109L115.793 73.6953V89.8412L106.493 92.5756Z" fill="white"/>
<path fill-rule="evenodd" clip-rule="evenodd" d="M88.9765 176.953C137.565 176.953 176.953 137.565 176.953 88.9765C176.953 40.3884 137.565 1 88.9765 1C40.3884 1 1 40.3884 1 88.9765C1 137.565 40.3884 176.953 88.9765 176.953ZM88.9765 177.953C138.117 177.953 177.953 138.117 177.953 88.9765C177.953 39.8361 138.117 0 88.9765 0C39.8361 0 0 39.8361 0 88.9765C0 138.117 39.8361 177.953 88.9765 177.953Z" fill="#303030"/>
</svg>
