<svg fill="none" height="56" viewBox="0 0 56 56" width="56" xmlns="http://www.w3.org/2000/svg"><path clip-rule="evenodd" d="m55.164.571289h-54.951109v54.951111h54.951109zm-50.84462 50.844611v-46.73812h46.73812v46.73812zm28.91382-19.9497 4.8937 6.4409-4.3044 3.7661-5.285-7.0267-1.0435-3.0129-1.0435 3.0129-5.0096 6.8001-5.0435-2.8036 5.3574-7.2605 2.8261-1.883-3.5218-.1674-8.1848-2.6836 1.1739-5.4817 8.837 2.851 2.8696 2.1759-.9565-3.4313-.087-7.7576 5.7827-.5859.087 8.5109-1.1305 3.3476 2.8697-2.0922 7.8376-2.6418 2.3479 5.1051-8.5768 2.8928-3.4349.1256z" fill="#000" fill-rule="evenodd"/></svg>