<svg width="35" height="37" viewBox="0 0 35 37" fill="none" xmlns="http://www.w3.org/2000/svg">
<mask id="mask0" mask-type="alpha" maskUnits="userSpaceOnUse" x="2" y="5" width="32" height="25">
<path d="M2.89771 12.0675L5.53467 7.0226L14.4201 5.30273L33.0509 13.5003L31.7324 20.322L20.9552 29.7807L10.1207 27.7743L2.89771 17.3411V12.0675Z"/>
</mask>
<path fill-rule="evenodd" clip-rule="evenodd" d="M31.2467 18.0291C31.5528 18.0827 31.8446 17.879 31.8985 17.5742C31.9523 17.2694 31.7477 16.9789 31.4416 16.9253L4.0009 12.1215C3.69476 12.0679 3.40295 12.2716 3.34912 12.5764C3.29529 12.8812 3.49983 13.1717 3.80597 13.2253L14.873 15.1627C13.4533 15.5573 12.1816 16.4841 11.3864 17.8555C9.77388 20.6362 10.7308 24.1919 13.5238 25.7974C16.3167 27.4029 19.888 26.4501 21.5005 23.6694C23.0177 21.053 22.2603 17.7506 19.8392 16.0321L31.2467 18.0291ZM20.5257 23.109C19.224 25.3537 16.3411 26.1228 14.0866 24.8268C11.832 23.5308 11.0596 20.6605 12.3612 18.4158C13.6629 16.1711 16.5458 15.402 18.8004 16.698C21.0549 17.994 21.8274 20.8643 20.5257 23.109Z"/>
</svg>
