<svg fill="none" height="29" viewBox="0 0 32 29" width="32" xmlns="http://www.w3.org/2000/svg"><path clip-rule="evenodd" d="m30.8239 14.6567c.2992.0526.5844-.1473.637-.4464.0526-.2992-.1473-.5844-.4465-.637l-26.8156-4.71495c-.29916-.05261-.58433.14727-.63693.44644s.14728.58433.44644.63694l10.81499 1.90157c-1.3874.3873-2.6301 1.297-3.4072 2.643-1.57582 2.7293-.6407 6.2193 2.0886 7.7951 2.7294 1.5757 6.2193.6406 7.7951-2.0887 1.4826-2.568.7425-5.8093-1.6235-7.4961zm-10.4767 4.986c-1.272 2.2032-4.0893 2.9581-6.2925 1.686-2.2032-1.272-2.958-4.0892-1.686-6.2924s4.0892-2.9581 6.2924-1.6861 2.9581 4.0893 1.6861 6.2925z" fill-rule="evenodd"/></svg>