<svg fill="none" height="19" viewBox="0 0 21 19" width="21" xmlns="http://www.w3.org/2000/svg"><path d="m19.8442 15.2654-.3.2-2.4.6c-.1627.0639-.3382.0882-.5121.0708-.1739-.0173-.3412-.0759-.4879-.1708-.1428-.0819-.2631-.1978-.3503-.3374-.0872-.1395-.1386-.2984-.1497-.4626l-.3-1.9v-.6c-.002-.1433.0473-.2825.139-.3925.0917-.1101.2197-.1837.361-.2075h.3l.2.3c.1.4.1.7.2 1.1v.4h.4l.3-.5.6-1.2c.5722-1.2765.7905-2.68344.6322-4.07332-.1584-1.38989-.6876-2.71162-1.5322-3.82672-1.2595-1.56222-3.0662-2.58661-5.0535-2.8652-1.98725-.27859-4.00605.20951-5.64652 1.3652l-.7.5-.3.2c-.09347.09162-.21913.14293-.35.14293-.13088 0-.25654-.05131-.35-.14293-.05705-.05393-.10059-.12054-.1271-.19443-.02652-.0739-.03526-.15299-.02552-.23089.00973-.0779.03768-.15241.08156-.2175.04389-.0651.10249-.11894.17106-.15718 1.28726-1.14107 2.86021-1.911215 4.55095-2.228229 1.69077-.317015 3.43587-.169005 5.04907.428234 1.9632.765595 3.572 2.233095 4.5143 4.117815.9424 1.88472 1.1511 4.05229.5857 6.08222-.2373 1.1529-.7143 2.2432-1.4 3.2v.2l-.2.4.9-.2.8-.2c.1077-.041.2263-.0434.3356-.007.1093.0365.2027.1096.2644.207.0409.1077.0433.2263.0069.3356-.0365.1093-.1095.2027-.2069.2644z"/><circle cx="2.09583" cy="6.41321" r=".71204"/><circle cx="1.53528" cy="11.0118" r=".71204"/><circle cx="3.89075" cy="15.8185" r=".71204"/><circle cx="8.75415" cy="18.1105" r=".71204"/><circle cx="13.3959" cy="18.1105" r=".71204"/></svg>