<svg width="34" height="37" viewBox="0 0 34 37" fill="none" xmlns="http://www.w3.org/2000/svg">
<path d="M27.7048 23.7868L27.4048 23.9868L25.0048 24.5868C24.8421 24.6508 24.6666 24.6751 24.4927 24.6577C24.3188 24.6403 24.1515 24.5818 24.0048 24.4868C23.862 24.4049 23.7417 24.2891 23.6545 24.1495C23.5673 24.01 23.5159 23.851 23.5048 23.6868L23.2048 21.7868V21.1868C23.2028 21.0436 23.2521 20.9044 23.3438 20.7944C23.4355 20.6843 23.5635 20.6107 23.7048 20.5868H24.0048L24.2048 20.8868C24.3048 21.2868 24.3048 21.5868 24.4048 21.9868V22.3868H24.8048L25.1048 21.8868L25.7048 20.6868C26.2769 19.4103 26.4953 18.0034 26.337 16.6136C26.1786 15.2237 25.6494 13.9019 24.8048 12.7868C23.5453 11.2246 21.7385 10.2002 19.7513 9.92165C17.764 9.64306 15.7452 10.1312 14.1048 11.2868L13.4048 11.7868L13.1048 11.9868C13.0113 12.0785 12.8856 12.1298 12.7548 12.1298C12.6239 12.1298 12.4982 12.0785 12.4048 11.9868C12.3477 11.9329 12.3042 11.8663 12.2777 11.7924C12.2512 11.7185 12.2424 11.6394 12.2522 11.5615C12.2619 11.4836 12.2898 11.4091 12.3337 11.344C12.3776 11.2789 12.4362 11.2251 12.5048 11.1868C13.792 10.0458 15.365 9.27563 17.0557 8.95861C18.7465 8.6416 20.4916 8.78961 22.1048 9.38685C24.068 10.1524 25.6768 11.6199 26.6191 13.5047C27.5615 15.3894 27.7702 17.5569 27.2048 19.5868C26.9675 20.7398 26.4905 21.8301 25.8048 22.7868V22.9868L25.6048 23.3868L26.5048 23.1868L27.3048 22.9868C27.4125 22.9459 27.5311 22.9435 27.6404 22.9799C27.7497 23.0164 27.8431 23.0895 27.9048 23.1868C27.9457 23.2946 27.9481 23.4132 27.9117 23.5225C27.8752 23.6318 27.8021 23.7252 27.7048 23.7868Z" fill="white"/>
<circle cx="9.95642" cy="14.9347" r="0.71204" fill="white"/>
<circle cx="9.39588" cy="19.5333" r="0.71204" fill="white"/>
<circle cx="11.7513" cy="24.34" r="0.71204" fill="white"/>
<circle cx="16.6149" cy="26.632" r="0.71204" fill="white"/>
<circle cx="21.2565" cy="26.632" r="0.71204" fill="white"/>
</svg>
