<svg fill="none" height="23" viewBox="0 0 23 23" width="23" xmlns="http://www.w3.org/2000/svg"><path clip-rule="evenodd" d="m21.0571 16.7431c.0907-.1395.1024-.3161.031-.4663-.1135-.2386-.3989-.3401-.6375-.2268-3.0352 1.4354-6.5964 1.2016-9.4178-.6185-4.5074-2.9078-5.8043-8.91883-2.89679-13.42636.09168-.14026.10331-.31821.03073-.46924l-.00001-.00001c-.11443-.23805-.40006-.33833-.63817-.2242-3.49311 1.66154-5.81555 5.08117-6.07201 8.94081l-.00001.0002c-.25175 3.8579 1.6035 7.5501 4.84929 9.6505 4.94607 3.2008 11.55047 1.7859 14.75127-3.1601zm0 0 .0001-.0002-.1259-.0815.1258.0818zm-13.4642-15.29615-.06434-.13526-.00058.00028zm12.9217 14.73845-.0643-.1353.0003-.0001zm-12.37859-14.18026-.00031.00047-.12546-.08221.12605.08131zm-1.93273 8.72386c1.85174 5.4044 7.61072 8.3615 13.04002 6.7971-.585.6342-1.2524 1.1881-1.985 1.6467-4.5446 2.8449-10.53496 1.467-13.37981-3.0776-2.75074-4.3943-1.55348-10.14018 2.63706-13.0873-1.06258 2.43821-1.17856 5.19285-.31227 7.7211z" fill-rule="evenodd"/></svg>