<svg width="34" height="37" viewBox="0 0 34 37" fill="none" xmlns="http://www.w3.org/2000/svg">
<path fill-rule="evenodd" clip-rule="evenodd" d="M27.28 23.2626C27.3707 23.1231 27.3824 22.9466 27.311 22.7963L27.311 22.7963C27.1975 22.5577 26.9121 22.4562 26.6735 22.5695C23.6383 24.005 20.0771 23.7711 17.2557 21.9511C12.7483 19.0433 11.4514 13.0322 14.3589 8.52467C14.4506 8.38442 14.4622 8.20646 14.3896 8.05544L14.3896 8.05542C14.2752 7.81737 13.9896 7.71709 13.7515 7.83122C10.2583 9.49276 7.93592 12.9124 7.67946 16.772L7.67944 16.7722C7.42769 20.6301 9.28294 24.3223 12.5287 26.4227C17.4748 29.6235 24.0792 28.2087 27.28 23.2626ZM27.28 23.2626L27.2801 23.2625L27.1542 23.181L27.28 23.2627L27.28 23.2626ZM13.8158 7.96648L13.7515 7.83122L13.7509 7.8315L13.8158 7.96648ZM26.7375 22.7049L26.6732 22.5696L26.6735 22.5695L26.7375 22.7049ZM14.3589 8.52467L14.3586 8.52515L14.2331 8.44293L14.3592 8.52424L14.3589 8.52467ZM12.4262 17.2486C14.2779 22.6529 20.0369 25.61 25.4662 24.0456C24.8812 24.6798 24.2138 25.2338 23.4812 25.6924C18.9366 28.5372 12.9462 27.1593 10.1014 22.6147C7.35065 18.2205 8.54791 12.4746 12.7385 9.52743C11.6759 11.9656 11.5599 14.7203 12.4262 17.2486Z"/>
</svg>
