<svg fill="none" height="24" viewBox="0 0 12 24" width="12" xmlns="http://www.w3.org/2000/svg"><path d="m8.57634 13.0401v-9.30003c0-.79565-.31607-1.55871-.87867-2.12132-.56261-.56261-1.32568-.878682-2.12133-.878682-.39772-.013968-.79407.054076-1.16437.199896-.37029.145826-.70661.366296-.98802.647706s-.50189.61773-.64771.98803c-.14582.37029-.21386.76664-.1999 1.16437v9.30003c-1.21825.7971-2.070775 2.0447-2.370696 3.4693-.2999219 1.4246-.022771 2.91.770701 4.1307.484675.7793 1.163415 1.4194 1.969755 1.8576.80635.4382 1.71267.6596 2.63024.6424 1.4587 0 2.85764-.5795 3.88909-1.6109 1.03147-1.0315 1.61087-2.4304 1.61087-3.8891-.0188-.9107-.2556-1.8037-.6906-2.604-.43495-.8004-1.05541-1.4848-1.80936-1.996zm-.69999.7c1.04159.6201 1.79628 1.6264 2.09999 2.8.16766.5691.20976 1.1679.12346 1.7549-.0864.587-.29907 1.1483-.62346 1.6451-.57686 1.0588-1.54644 1.8489-2.7 2.2-1.18778.2847-2.43944.1059-3.5-.5-.5149-.2994-.96525-.6981-1.32493-1.1728-.35967-.4748-.62152-1.0162-.77035-1.593-.14883-.5767-.181694-1.1772-.09667-1.7668.08502-.5895.28623-1.1563.59195-1.6674.37054-.7004.92333-1.2878 1.6-1.7.2-.1.3-.2.3-.4v-9.60003c-.00061-.54006.20686-1.05959.57931-1.45066.37246-.39107.88125-.62363 1.42069-.64934.53945.02571 1.04824.25827 1.4207.64934.37245.39107.57992.9106.5793 1.45066v9.60003c0 .2.10001.3.30001.4z"/></svg>