<svg width="34" height="37" viewBox="0 0 34 37" fill="none" xmlns="http://www.w3.org/2000/svg">
<path d="M19.6127 19.3406V10.3568C19.6127 9.58816 19.2967 8.85104 18.7343 8.30756C18.1718 7.76408 17.409 7.45876 16.6136 7.45876C16.216 7.44526 15.8197 7.51099 15.4495 7.65186C15.0794 7.79272 14.7431 8.0057 14.4618 8.27754C14.1805 8.54939 13.9601 8.87427 13.8143 9.23198C13.6685 9.58968 13.6005 9.97255 13.6144 10.3568V19.3406C12.3965 20.1106 11.5443 21.3158 11.2444 22.6919C10.9446 24.0681 11.2217 25.5031 12.0149 26.6822C12.4994 27.435 13.178 28.0533 13.9841 28.4767C14.7902 28.9 15.6963 29.1138 16.6136 29.0972V29.0972C18.0719 29.0972 19.4704 28.5374 20.5016 27.541C21.5327 26.5447 22.112 25.1933 22.112 23.7842C22.0932 22.9044 21.8564 22.0418 21.4216 21.2687C20.9867 20.4956 20.3665 19.8344 19.6127 19.3406V19.3406ZM18.9129 20.0168C19.9542 20.6159 20.7087 21.5879 21.0123 22.7216C21.1799 23.2714 21.222 23.8498 21.1357 24.4168C21.0494 24.9839 20.8368 25.5261 20.5125 26.006C19.9358 27.0288 18.9665 27.792 17.8132 28.1312C16.6258 28.4062 15.3745 28.2335 14.3142 27.6482C13.7995 27.359 13.3493 26.9739 12.9897 26.5153C12.6301 26.0566 12.3684 25.5336 12.2196 24.9765C12.0708 24.4194 12.0379 23.8392 12.1229 23.2698C12.2079 22.7003 12.4091 22.1528 12.7147 21.659C13.0851 20.9824 13.6378 20.415 14.3142 20.0168C14.5142 19.9202 14.6142 19.8236 14.6142 19.6304V10.3568C14.6135 9.83507 14.821 9.3332 15.1933 8.95542C15.5656 8.57765 16.0743 8.353 16.6136 8.32816C17.1529 8.353 17.6615 8.57765 18.0339 8.95542C18.4062 9.3332 18.6136 9.83507 18.613 10.3568V19.6304C18.613 19.8236 18.713 19.9202 18.9129 20.0168Z"/>
</svg>
