<svg width="35" height="37" viewBox="0 0 35 37" fill="none" xmlns="http://www.w3.org/2000/svg">
<path d="M8.63696 11.5279C8.63696 11.2788 8.63696 11.0334 8.63696 10.7843C8.64917 10.736 8.66544 10.6914 8.67357 10.643C8.86474 9.70242 9.36097 9.04809 10.2721 8.79528C10.3941 8.76182 10.5202 8.7358 10.6422 8.70605C10.9229 8.70605 11.2035 8.70605 11.4842 8.70605C11.5736 8.72464 11.6631 8.74695 11.7567 8.76182C12.6759 8.92169 13.5341 9.27116 14.3679 9.70614C14.494 9.76934 14.5957 9.78049 14.7299 9.72844C16.6742 8.98861 18.6428 8.94027 20.5667 9.72845C23.9223 11.1003 25.777 13.7399 26.1634 17.5023C26.2977 18.7998 26.1024 20.075 25.6672 21.3056C25.6347 21.3949 25.6469 21.5213 25.6794 21.6142C25.8747 22.1421 26.1065 22.6552 26.2855 23.1905C26.562 24.0047 26.7125 24.845 26.5987 25.7186C26.4807 26.6481 25.9031 27.3545 25.049 27.5961C24.5609 27.7337 24.0647 27.73 23.5684 27.6519C22.6207 27.5032 21.7422 27.1425 20.888 26.6964C20.7701 26.6369 20.6765 26.6295 20.5585 26.6741C19.0333 27.2652 17.4714 27.3842 15.881 27.0384C12.2 26.2428 9.4057 22.9786 9.10065 18.8816C9.00303 17.5916 9.1698 16.3312 9.60908 15.1155C9.65382 14.9891 9.65382 14.8887 9.58874 14.7698C9.1942 14.0002 8.90541 13.186 8.75492 12.3235C8.71018 12.0595 8.67764 11.7918 8.63696 11.5279ZM17.6463 10.1188C17.3412 10.1411 17.0402 10.1597 16.7352 10.1895C16.5888 10.2043 16.4464 10.2303 16.304 10.2601C13.7334 10.7992 11.8746 12.3086 10.7195 14.7883C10.691 14.8441 10.6991 14.9445 10.7317 15.004C10.874 15.2791 11.0286 15.5505 11.1872 15.8182C12.3749 17.863 13.831 19.681 15.4621 21.3465C17.024 22.9452 18.7445 24.3282 20.6318 25.4733C20.7253 25.529 20.7945 25.5476 20.9043 25.4956C24.1907 23.8449 25.9235 20.023 25.0652 16.2903C24.2314 12.6729 21.1524 10.1188 17.6463 10.1188ZM10.2599 16.1305C9.60501 19.0861 10.1744 21.7332 12.2285 23.9006C14.2866 26.0755 16.7962 26.6815 19.6596 26.0012C15.7997 23.4396 12.684 20.1568 10.2599 16.1305ZM13.4772 10.3159C13.2819 10.2341 13.1193 10.1597 12.9484 10.0928C12.2651 9.82511 11.5696 9.62435 10.8293 9.66524C10.1297 9.70614 9.69449 10.0965 9.57654 10.8215C9.49519 11.3234 9.56027 11.8178 9.68229 12.3049C9.7433 12.554 9.81245 12.8031 9.89379 13.0484C9.97514 13.2938 10.0687 13.5317 10.1704 13.8106C10.9839 12.316 12.0739 11.1709 13.4772 10.3159ZM21.8032 26.0867C22.0106 26.1722 22.1774 26.2466 22.3441 26.3135C23.0112 26.5737 23.6905 26.7745 24.4104 26.7447C25.1263 26.715 25.5737 26.3246 25.6998 25.5848C25.7811 25.1164 25.7201 24.6516 25.6225 24.1906C25.5086 23.6515 25.3337 23.1348 25.1059 22.6031C24.3006 24.0828 23.2105 25.2316 21.8032 26.0867Z"/>
</svg>
