<svg fill="none" height="22" viewBox="0 0 19 22" width="19" xmlns="http://www.w3.org/2000/svg"><path d="m.0992602 3.17198c0-.27517 0-.54624 0-.82142.0123288-.05339.0287688-.10268.0369878-.15607.193149-1.0391.694519-1.761949 1.615062-2.041233.12329-.036964.25069-.0657133.37398-.0985702h.85068c.09041.0205356.18082.0451783.27534.0616072.92877.176605 1.79589.562674 2.63835 1.043206.1274.06982.23014.08214.36576.02464 1.96438-.817312 3.95338-.870705 5.89728 0 3.3904 1.51553 5.2643 4.43158 5.6548 8.58797.1356 1.43339-.0617 2.84209-.5014 4.20159-.0329.0986-.0206.2382.0123.3409.1973.5832.4315 1.15.6123 1.7414.2795.8995.4316 1.8277.3165 2.7928-.1192 1.0268-.7028 1.8072-1.5658 2.0741-.4931.152-.9945.1479-1.4959.0616-.9575-.1643-1.8452-.5627-2.7082-1.0555-.1192-.0657-.2137-.0739-.3328-.0246-1.5411.653-3.11922.7844-4.72607.4025-3.71917-.879-6.54246-4.485-6.850678-9.0111-.09863-1.42512.069865-2.81743.513698-4.16045.04521-.13965.04521-.25054-.02055-.38197-.398627-.85017-.690407-1.74962-.842461-2.70247-.045206-.29161-.078083-.58732-.1191788-.87893zm9.1027298-1.55659c-.30822.02464-.61233.04518-.92055.07803-.14794.01643-.29178.04518-.43561.07804-2.59726.59553-4.47534 2.26302-5.64246 5.00246-.02877.06161-.02055.1725.01233.23821.14383.30393.3.60375.46027.89946 1.2 2.25891 2.67123 4.26731 4.31917 6.10731 1.57808 1.766 3.31646 3.2939 5.22326 4.5589.0945.0616.1644.0821.2754.0246 3.3205-1.8236 5.0712-6.0457 4.2041-10.16921-.8425-3.99622-3.9534-6.8178-7.49591-6.8178zm-7.46301 6.6412c-.66164 3.26511-.0863 6.18941 1.98904 8.58381 2.07945 2.4027 4.61507 3.0722 7.50818 2.3206-3.89996-2.8298-7.0479-6.4564-9.49722-10.90441zm3.25069-6.42352c-.19726-.09036-.36165-.1725-.53425-.24643-.69041-.29571-1.39315-.5175-2.14109-.47232-.70685.04518-1.14658.47643-1.26576 1.27731-.082187.55446-.01643 1.10071.10685 1.63874.06165.27518.13151.55035.2137.82142s.17672.53393.27945.84196c.82192-1.65106 1.92329-2.91605 3.3411-3.86068zm8.41233 17.42233c.2096.0945.3781.1766.5466.2506.6739.2875 1.3602.5092 2.0876.4764.7233-.0329 1.1754-.4641 1.3028-1.2814.0822-.5175.0205-1.0309-.0781-1.5402-.1151-.5955-.2918-1.1664-.5219-1.7537-.8137 1.6346-1.9151 2.9037-3.337 3.8483z"/></svg>